<?xml version="1.0" encoding="utf-8"?>
<!-- Generator: Adobe Illustrator 16.0.0, SVG Export Plug-In . SVG Version: 6.00 Build 0)  -->
<!DOCTYPE svg PUBLIC "-//W3C//DTD SVG 1.1//EN" "http://www.w3.org/Graphics/SVG/1.1/DTD/svg11.dtd">
<svg version="1.1" id="Layer_1" xmlns="http://www.w3.org/2000/svg" xmlns:xlink="http://www.w3.org/1999/xlink" x="0px" y="0px"
	 width="2117.577px" height="656.099px" viewBox="0 0 2117.577 656.099" enable-background="new 0 0 2117.577 656.099"
	 xml:space="preserve">
<g>
	<g>
		<path fill="#5094CD" d="M-1307.745,218.974c22.2,0,39.797,6.15,52.8,18.45c12.999,12.3,19.5,28.753,19.5,49.35
			c0,21.601-6.75,38.101-20.25,49.5c-13.5,11.4-33.149,17.101-58.95,17.101h-129.3v82.8h-36v-217.2H-1307.745z M-1314.045,320.974
			c27.797,0,41.7-11.193,41.7-33.591c0-24.004-14.7-36.009-44.101-36.009h-127.5v69.6H-1314.045z"/>
		<path fill="#5094CD" d="M-981.648,436.174h-41.25l-48.305-67.8h-91.646v67.8h-36v-184.5h149.1c19.599,0,35.199,5.302,46.801,15.9
			c11.597,10.603,17.399,24.801,17.399,42.6c0,30.6-15.3,49.303-45.899,56.1L-981.648,436.174z M-1055.148,335.974
			c21.797,0,32.7-8.396,32.7-25.19c0-17.803-11.602-26.709-34.801-26.709h-105.6v51.899H-1055.148z"/>
		<path fill="#5094CD" d="M-905.449,436.174h-36v-184.5h36V436.174z"/>
		<path fill="#5094CD" d="M-599.453,436.174h-36l-0.9-151.8l-92.695,125.704l-92.404-126.904l-0.9,1.2v151.8h-36v-184.5h54.047
			l75.229,104.344l75.46-104.344h54.164V436.174z"/>
		<path fill="#5094CD" d="M-339.054,375.574c0,19.401-9.703,35.25-29.101,47.55c-19.401,12.3-45.403,18.45-78,18.45
			c-32.803,0-58.903-6.15-78.3-18.45c-19.401-12.3-29.1-28.148-29.1-47.55v-123.9h36v116.7c0,27.201,23.798,40.8,71.399,40.8
			c47.4,0,71.101-13.599,71.101-40.8v-116.7h36V375.574z"/>
		<path fill="#5094CD" d="M-111.056,297.273c-24-12.6-50.1-18.899-78.3-18.899c-41.001,0-61.5,7.303-61.5,21.899
			c0,8.602,7.697,14.203,23.101,16.801c21,1.8,42,3.703,63,5.699c30.196,3,51.698,8.4,64.5,16.2c14.198,8.602,21.3,21.703,21.3,39.3
			c0,19.801-8.851,35.101-26.55,45.9c-17.7,10.8-43.351,16.2-76.95,16.2c-47.4,0-85.304-10.8-113.7-32.4l19.5-25.5
			c25.396,17.804,56.597,26.7,93.6,26.7c20.799,0,36.9-2.648,48.301-7.95c11.399-5.297,17.1-12.347,17.1-21.149
			c0-9.797-7.003-16.697-21-20.7c-7.8-2.198-19.903-3.698-36.3-4.5c-25.604-1.2-41.302-2.101-47.101-2.7
			c-22.8-2.198-39.6-7.097-50.399-14.7c-10.8-7.599-16.2-18.698-16.2-33.3c0-17.597,8.648-31.547,25.95-41.85
			c17.297-10.299,41.55-15.45,72.75-15.45c41.597,0,75.3,9,101.1,27L-111.056,297.273z"/>
	</g>
</g>
<circle fill-rule="evenodd" clip-rule="evenodd" fill="none" stroke="#5094CD" stroke-width="11" stroke-miterlimit="10" cx="-1798.291" cy="320.341" r="224"/>
<circle fill-rule="evenodd" clip-rule="evenodd" fill="none" stroke="#5094CD" stroke-width="11" stroke-miterlimit="10" cx="-1798.291" cy="320.341" r="258.365"/>
<circle fill-rule="evenodd" clip-rule="evenodd" fill="#5094CD" cx="-4070.194" cy="322.341" r="306.365"/>
<g>
	<g>
		<path fill="#FFFFFF" d="M829.109,218.974c22.2,0,39.797,6.15,52.8,18.45c12.999,12.3,19.5,28.753,19.5,49.35
			c0,21.601-6.75,38.101-20.25,49.5c-13.5,11.4-33.149,17.101-58.95,17.101h-129.3v82.8h-36v-217.2H829.109z M822.81,320.974
			c27.797,0,41.7-11.193,41.7-33.591c0-24.004-14.7-36.009-44.101-36.009h-127.5v69.6H822.81z"/>
		<path fill="#FFFFFF" d="M1155.206,436.174h-41.25l-48.305-67.8h-91.646v67.8h-36v-184.5h149.1c19.599,0,35.199,5.302,46.801,15.9
			c11.597,10.603,17.399,24.801,17.399,42.6c0,30.6-15.3,49.303-45.899,56.1L1155.206,436.174z M1081.706,335.974
			c21.797,0,32.7-8.396,32.7-25.19c0-17.803-11.602-26.709-34.801-26.709h-105.6v51.899H1081.706z"/>
		<path fill="#FFFFFF" d="M1231.405,436.174h-36v-184.5h36V436.174z"/>
		<path fill="#FFFFFF" d="M1537.401,436.174h-36l-0.9-151.8l-92.695,125.704l-92.404-126.904l-0.9,1.2v151.8h-36v-184.5h54.047
			l75.229,104.344l75.46-104.344h54.164V436.174z"/>
		<path fill="#FFFFFF" d="M1797.801,375.574c0,19.401-9.703,35.25-29.101,47.55c-19.401,12.3-45.403,18.45-78,18.45
			c-32.803,0-58.903-6.15-78.3-18.45c-19.401-12.3-29.1-28.148-29.1-47.55v-123.9h36v116.7c0,27.201,23.798,40.8,71.399,40.8
			c47.4,0,71.101-13.599,71.101-40.8v-116.7h36V375.574z"/>
		<path fill="#FFFFFF" d="M2025.799,297.273c-24-12.6-50.1-18.899-78.3-18.899c-41.001,0-61.5,7.303-61.5,21.899
			c0,8.602,7.697,14.203,23.101,16.801c21,1.8,42,3.703,63,5.699c30.196,3,51.698,8.4,64.5,16.2c14.198,8.602,21.3,21.703,21.3,39.3
			c0,19.801-8.851,35.101-26.55,45.9c-17.7,10.8-43.351,16.2-76.95,16.2c-47.4,0-85.304-10.8-113.7-32.4l19.5-25.5
			c25.396,17.804,56.597,26.7,93.6,26.7c20.799,0,36.9-2.648,48.301-7.95c11.399-5.297,17.1-12.347,17.1-21.149
			c0-9.797-7.003-16.697-21-20.7c-7.8-2.198-19.903-3.698-36.3-4.5c-25.604-1.2-41.302-2.101-47.101-2.7
			c-22.8-2.198-39.6-7.097-50.399-14.7c-10.8-7.599-16.2-18.698-16.2-33.3c0-17.597,8.648-31.547,25.95-41.85
			c17.297-10.299,41.55-15.45,72.75-15.45c41.597,0,75.3,9,101.1,27L2025.799,297.273z"/>
	</g>
</g>
<circle fill-rule="evenodd" clip-rule="evenodd" fill="none" stroke="#FFFFFF" stroke-width="11" stroke-miterlimit="10" cx="338.564" cy="320.341" r="224"/>
<circle fill-rule="evenodd" clip-rule="evenodd" fill="none" stroke="#FFFFFF" stroke-width="11" stroke-miterlimit="10" cx="338.564" cy="320.341" r="258.365"/>
</svg>
